HIERARCHY
ROOT Hips
{
	OFFSET 0.000000 71.427986 0.000000
	CHANNELS 6 Xposition Yposition Zposition Xrotation Yrotation Zrotation
	JOINT Pelvis
	{
		OFFSET 0.000000 0.000000 0.000000
		CHANNELS 3 Xrotation Yrotation Zrotation
		JOINT LeftUpLeg
		{
			OFFSET 6.797100 -2.508499 -1.318700
			CHANNELS 3 Xrotation Yrotation Zrotation
			JOINT LeftLeg
			{
				OFFSET 0.069008 -29.241863 0.690200
				CHANNELS 3 Xrotation Yrotation Zrotation
				JOINT LeftFoot
				{
					OFFSET -0.069008 -29.568123 -0.266800
					CHANNELS 3 Xrotation Yrotation Zrotation
					JOINT LeftToeBase
					{
						OFFSET 3.145500 -8.631000 16.059900
						CHANNELS 3 Xrotation Yrotation Zrotation
						End Site
						{
							OFFSET 0.000000 18.501587 0.000000
						}
					}
				}
			}
			JOINT Left_ShortSleeve
			{
				OFFSET 0.265923 -10.480953 1.153800
				CHANNELS 3 Xrotation Yrotation Zrotation
				End Site
				{
					OFFSET 1.725763 19.823879 0.000000
				}
			}
		}
		JOINT RightUpLeg
		{
			OFFSET -6.797100 -2.508499 -1.318700
			CHANNELS 3 Xrotation Yrotation Zrotation
			JOINT RightLeg
			{
				OFFSET -0.082453 -29.241932 0.688000
				CHANNELS 3 Xrotation Yrotation Zrotation
				JOINT RightFoot
				{
					OFFSET 0.082453 -29.568058 -0.264600
					CHANNELS 3 Xrotation Yrotation Zrotation
					JOINT RightToeBase
					{
						OFFSET -3.115300 -8.682800 16.113400
						CHANNELS 3 Xrotation Yrotation Zrotation
						End Site
						{
							OFFSET 0.000000 18.567114 0.000000
						}
					}
				}
			}
			JOINT Right_ShortSleeve
			{
				OFFSET -0.265923 -10.480953 1.153800
				CHANNELS 3 Xrotation Yrotation Zrotation
				End Site
				{
					OFFSET -1.725766 19.823910 0.000000
				}
			}
		}
	}
	JOINT Spine
	{
		OFFSET 0.000000 13.368103 0.470500
		CHANNELS 3 Xrotation Yrotation Zrotation
		JOINT Spine1
		{
			OFFSET 0.147000 13.837402 0.538800
			CHANNELS 3 Xrotation Yrotation Zrotation
			JOINT Spine2
			{
				OFFSET 0.168000 16.242897 -1.435500
				CHANNELS 3 Xrotation Yrotation Zrotation
				JOINT Neck
				{
					OFFSET 0.217200 18.631500 -1.679100
					CHANNELS 3 Xrotation Yrotation Zrotation
					JOINT Head
					{
						OFFSET 0.000000 6.599396 1.385900
						CHANNELS 3 Xrotation Yrotation Zrotation
						JOINT Hat
						{
							OFFSET -0.532200 27.220596 -10.096100
							CHANNELS 3 Xrotation Yrotation Zrotation
							End Site
							{
								OFFSET 0.000000 22.029861 0.000000
							}
						}
						JOINT HairD
						{
							OFFSET -10.777400 17.437393 -1.325900
							CHANNELS 3 Xrotation Yrotation Zrotation
							JOINT HairD1
							{
								OFFSET -3.290299 -11.051193 1.062200
								CHANNELS 3 Xrotation Yrotation Zrotation
								End Site
								{
									OFFSET 0.000000 11.579437 0.000000
								}
							}
						}
						JOINT HairB
						{
							OFFSET -10.777400 17.437393 1.467900
							CHANNELS 3 Xrotation Yrotation Zrotation
							JOINT HairB1
							{
								OFFSET -1.561200 -12.956299 3.590200
								CHANNELS 3 Xrotation Yrotation Zrotation
								End Site
								{
									OFFSET 0.000000 13.534866 0.000000
								}
							}
						}
						JOINT HairA
						{
							OFFSET 9.713100 17.437393 1.467900
							CHANNELS 3 Xrotation Yrotation Zrotation
							JOINT HairA1
							{
								OFFSET 1.561200 -12.956299 3.590200
								CHANNELS 3 Xrotation Yrotation Zrotation
								End Site
								{
									OFFSET 0.000000 13.534866 0.000000
								}
							}
						}
						JOINT HairC
						{
							OFFSET 9.713100 17.437393 -1.325900
							CHANNELS 3 Xrotation Yrotation Zrotation
							JOINT HairC1
							{
								OFFSET 3.290300 -11.051193 1.062200
								CHANNELS 3 Xrotation Yrotation Zrotation
								End Site
								{
									OFFSET 0.000000 11.579437 0.000000
								}
							}
						}
					}
				}
				JOINT LeftShoulder
				{
					OFFSET 5.101800 15.108002 -2.763700
					CHANNELS 3 Xrotation Yrotation Zrotation
					JOINT LeftArm
					{
						OFFSET 9.825497 2.506317 -1.597400
						CHANNELS 3 Xrotation Yrotation Zrotation
						JOINT LeftForeArm
						{
							OFFSET 21.966244 0.000000 0.000000
							CHANNELS 3 Xrotation Yrotation Zrotation
							JOINT LeftHand
							{
								OFFSET 33.879036 0.000000 0.000000
								CHANNELS 3 Xrotation Yrotation Zrotation
								JOINT LeftHandThumb1
								{
									OFFSET 6.715286 -2.359680 3.363841
									CHANNELS 3 Xrotation Yrotation Zrotation
									JOINT LeftHandThumb2
									{
										OFFSET 2.507072 -1.447464 1.447461
										CHANNELS 3 Xrotation Yrotation Zrotation
										JOINT LeftHandThumb3
										{
											OFFSET 2.898338 -1.673355 1.673357
											CHANNELS 3 Xrotation Yrotation Zrotation
											End Site
											{
												OFFSET -0.295959 3.727692 -0.131651
											}
										}
									}
								}
								JOINT LeftHandIndex1
								{
									OFFSET 14.190811 -0.254547 3.840278
									CHANNELS 3 Xrotation Yrotation Zrotation
									JOINT LeftHandIndex2
									{
										OFFSET 3.551727 0.000000 -0.000000
										CHANNELS 3 Xrotation Yrotation Zrotation
										JOINT LeftHandIndex3
										{
											OFFSET 2.894196 0.000000 0.000000
											CHANNELS 3 Xrotation Yrotation Zrotation
											End Site
											{
												OFFSET -1.000603 2.690872 0.366626
											}
										}
									}
								}
								JOINT LeftHandMiddle1
								{
									OFFSET 13.776489 0.000000 0.000000
									CHANNELS 3 Xrotation Yrotation Zrotation
									JOINT LeftHandMiddle2
									{
										OFFSET 3.438232 0.000000 0.000000
										CHANNELS 3 Xrotation Yrotation Zrotation
										JOINT LeftHandMiddle3
										{
											OFFSET 3.691551 0.000000 0.000000
											CHANNELS 3 Xrotation Yrotation Zrotation
											End Site
											{
												OFFSET -1.082298 3.499527 0.457670
											}
										}
									}
								}
								JOINT LeftHandRing1
								{
									OFFSET 13.966164 -0.268127 -3.067488
									CHANNELS 3 Xrotation Yrotation Zrotation
									JOINT LeftHandRing2
									{
										OFFSET 3.162567 0.000000 0.000000
										CHANNELS 3 Xrotation Yrotation Zrotation
										JOINT LeftHandRing3
										{
											OFFSET 3.324348 0.000000 0.000000
											CHANNELS 3 Xrotation Yrotation Zrotation
											End Site
											{
												OFFSET -0.861900 3.184998 0.405154
											}
										}
									}
								}
								JOINT LeftHandPinky1
								{
									OFFSET 13.131393 -0.168503 -5.746925
									CHANNELS 3 Xrotation Yrotation Zrotation
									JOINT LeftHandPinky2
									{
										OFFSET 2.849182 0.000000 0.000000
										CHANNELS 3 Xrotation Yrotation Zrotation
										JOINT LeftHandPinky3
										{
											OFFSET 2.805038 0.000000 0.000000
											CHANNELS 3 Xrotation Yrotation Zrotation
											End Site
											{
												OFFSET -0.882500 2.642609 0.325652
											}
										}
									}
								}
							}
							JOINT Left_Sleeve
							{
								OFFSET 6.592125 -0.646545 0.805568
								CHANNELS 3 Xrotation Yrotation Zrotation
								End Site
								{
									OFFSET -0.000179 20.275787 -0.000000
								}
							}
						}
					}
				}
				JOINT RightShoulder
				{
					OFFSET -5.731700 15.108002 -2.763700
					CHANNELS 3 Xrotation Yrotation Zrotation
					JOINT RightArm
					{
						OFFSET -9.825497 2.506317 -1.597400
						CHANNELS 3 Xrotation Yrotation Zrotation
						JOINT RightForeArm
						{
							OFFSET -21.966242 0.000000 0.000000
							CHANNELS 3 Xrotation Yrotation Zrotation
							JOINT RightHand
							{
								OFFSET -33.879032 0.000000 0.000000
								CHANNELS 3 Xrotation Yrotation Zrotation
								JOINT RightHandThumb1
								{
									OFFSET -6.715286 -2.359680 3.363841
									CHANNELS 3 Xrotation Yrotation Zrotation
									JOINT RightHandThumb2
									{
										OFFSET -2.507072 -1.447464 1.447461
										CHANNELS 3 Xrotation Yrotation Zrotation
										JOINT RightHandThumb3
										{
											OFFSET -2.898338 -1.673355 1.673357
											CHANNELS 3 Xrotation Yrotation Zrotation
											End Site
											{
												OFFSET 0.295959 3.727692 -0.131651
											}
										}
									}
								}
								JOINT RightHandIndex1
								{
									OFFSET -14.190811 -0.254547 3.840278
									CHANNELS 3 Xrotation Yrotation Zrotation
									JOINT RightHandIndex2
									{
										OFFSET -3.551727 0.000000 -0.000000
										CHANNELS 3 Xrotation Yrotation Zrotation
										JOINT RightHandIndex3
										{
											OFFSET -2.894196 0.000000 0.000000
											CHANNELS 3 Xrotation Yrotation Zrotation
											End Site
											{
												OFFSET 1.000603 2.690872 0.366626
											}
										}
									}
								}
								JOINT RightHandMiddle1
								{
									OFFSET -13.776489 0.000000 0.000000
									CHANNELS 3 Xrotation Yrotation Zrotation
									JOINT RightHandMiddle2
									{
										OFFSET -3.438232 0.000000 0.000000
										CHANNELS 3 Xrotation Yrotation Zrotation
										JOINT RightHandMiddle3
										{
											OFFSET -3.691551 0.000000 0.000000
											CHANNELS 3 Xrotation Yrotation Zrotation
											End Site
											{
												OFFSET 1.082298 3.499527 0.457670
											}
										}
									}
								}
								JOINT RightHandRing1
								{
									OFFSET -13.966164 -0.268127 -3.067488
									CHANNELS 3 Xrotation Yrotation Zrotation
									JOINT RightHandRing2
									{
										OFFSET -3.162567 0.000000 0.000000
										CHANNELS 3 Xrotation Yrotation Zrotation
										JOINT RightHandRing3
										{
											OFFSET -3.324348 0.000000 0.000000
											CHANNELS 3 Xrotation Yrotation Zrotation
											End Site
											{
												OFFSET 0.861900 3.184998 0.405154
											}
										}
									}
								}
								JOINT RightHandPinky1
								{
									OFFSET -13.131393 -0.168503 -5.746925
									CHANNELS 3 Xrotation Yrotation Zrotation
									JOINT RightHandPinky2
									{
										OFFSET -2.849182 0.000000 0.000000
										CHANNELS 3 Xrotation Yrotation Zrotation
										JOINT RightHandPinky3
										{
											OFFSET -2.805038 0.000000 0.000000
											CHANNELS 3 Xrotation Yrotation Zrotation
											End Site
											{
												OFFSET 0.882500 2.642609 0.325652
											}
										}
									}
								}
							}
							JOINT Right_Sleeve
							{
								OFFSET -6.592125 -0.646545 0.805568
								CHANNELS 3 Xrotation Yrotation Zrotation
								End Site
								{
									OFFSET 0.000179 20.275787 -0.000000
								}
							}
						}
					}
				}
				JOINT Bind_Right_JacketString
				{
					OFFSET -3.534800 11.969597 7.200700
					CHANNELS 3 Xrotation Yrotation Zrotation
					JOINT Bind_Right_JacketString1
					{
						OFFSET -0.319900 -6.102600 2.794100
						CHANNELS 3 Xrotation Yrotation Zrotation
						End Site
						{
							OFFSET 0.000000 6.719452 0.000000
						}
					}
				}
				JOINT Bind_Left_JacketString
				{
					OFFSET 2.904800 11.969597 7.200700
					CHANNELS 3 Xrotation Yrotation Zrotation
					JOINT Bind_Left_JacketString1
					{
						OFFSET 0.364800 -5.904503 3.186800
						CHANNELS 3 Xrotation Yrotation Zrotation
						End Site
						{
							OFFSET 0.000000 6.719513 0.000000
						}
					}
				}
				JOINT HairE
				{
					OFFSET 5.915200 17.612701 -11.592200
					CHANNELS 3 Xrotation Yrotation Zrotation
					JOINT HairE1
					{
						OFFSET 0.289200 -7.171898 -1.284500
						CHANNELS 3 Xrotation Yrotation Zrotation
						End Site
						{
							OFFSET 0.000000 7.291756 0.000000
						}
					}
				}
				JOINT HairF
				{
					OFFSET -0.864800 17.612701 -11.592200
					CHANNELS 3 Xrotation Yrotation Zrotation
					JOINT HairF1
					{
						OFFSET 0.000000 -14.087097 -2.127501
						CHANNELS 3 Xrotation Yrotation Zrotation
						End Site
						{
							OFFSET 0.000000 14.246841 0.000000
						}
					}
				}
				JOINT HairG
				{
					OFFSET -8.087700 17.612701 -11.592200
					CHANNELS 3 Xrotation Yrotation Zrotation
					JOINT HairG1
					{
						OFFSET -0.293600 -6.081398 -0.910100
						CHANNELS 3 Xrotation Yrotation Zrotation
						End Site
						{
							OFFSET 0.000000 6.156120 0.000000
						}
					}
				}
			}
		}
	}
	JOINT Pouch
	{
		OFFSET 0.000000 4.394501 10.847300
		CHANNELS 3 Xrotation Yrotation Zrotation
		End Site
		{
			OFFSET 0.000000 21.880577 0.000000
		}
	}
	JOINT Bag
	{
		OFFSET -13.229000 4.813004 -0.593300
		CHANNELS 3 Xrotation Yrotation Zrotation
		End Site
		{
			OFFSET 0.000000 21.880577 0.000000
		}
	}
	JOINT OccupyGuyFacialAnim_Joint
	{
		OFFSET 1.000000 -70.206398 -1.655000
		CHANNELS 3 Xrotation Yrotation Zrotation
		End Site
		{
			OFFSET 0.000000 21.880577 0.000000
		}
	}
}
MOTION
Frames: 5
Frame Time: 0.033333
-0.950794 69.025139 0.182586 9.603406 -58.238011 9.024936 -0.000000 0.000003 -0.000000 -42.212755 -6.518876 0.400503 71.189498 5.750355 4.372232 10.799819 -0.687204 -3.848790 0.000001 0.000001 -0.000000 -0.000000 0.000001 0.000001 -21.507663 -14.917693 -1.559943 48.194221 1.314363 2.489303 -16.951056 1.362590 -6.878846 0.000000 -0.000000 0.000000 -0.000000 0.000001 0.000000 23.147736 1.231885 -0.166018 1.957255 0.728118 -1.564819 1.940412 0.805847 -1.616294 0.980291 12.041114 -5.938841 -9.130663 29.043648 -9.135946 0.000001 0.000001 -0.000001 0.000001 0.000001 -0.000001 0.000001 0.000001 -0.000000 0.000001 0.000001 -0.000000 -0.000001 -0.000001 -0.000000 0.000001 0.000001 -0.000000 -0.000001 -0.000001 -0.000000 0.000001 0.000001 -0.000001 0.000001 0.000001 -0.000001 -0.368186 -20.146755 11.220274 3.114917 -10.645612 -57.045849 -92.848376 -59.532974 -79.702502 -1.990644 -23.132756 -9.630423 4.766509 -0.870668 -14.442466 15.732301 12.674829 8.828582 0.000002 -0.000001 0.000001 -3.616537 -7.817000 -81.262558 -0.005912 -4.401095 -67.463397 -0.000000 0.000001 -0.000004 -5.492642 2.419773 -86.651810 -0.067887 -4.899616 -76.606889 0.000002 -0.000000 -0.000003 -4.493090 3.922317 -90.410538 -1.102449 -0.685692 -62.310914 -0.000003 -0.000001 0.000001 -8.882722 8.262637 -85.751188 -0.050898 -0.066983 -74.106309 0.000000 -0.000000 -0.000004 0.000000 0.000001 0.000000 0.684047 9.214340 1.964392 12.485490 5.754226 62.438045 -43.278148 87.098784 40.370082 -0.232329 -2.734707 -11.610663 24.918338 -21.323383 30.343071 9.041926 8.262111 -18.001800 -0.000001 -0.000001 -0.000001 -0.057296 -3.010722 61.426719 0.006454 4.395168 66.609180 -0.000001 0.000001 0.000002 -1.220654 -0.131058 68.295102 -0.077066 4.898404 84.511495 -0.000000 0.000001 -0.000001 0.879925 -4.648019 79.190852 -0.729560 1.145795 73.255739 0.000001 -0.000003 -0.000003 -3.959113 0.098047 86.766782 -0.027271 0.052905 54.416117 0.000001 -0.000001 0.000000 0.000000 -0.000003 0.000002 0.000001 0.000001 0.000001 0.000001 0.000003 -0.000002 0.000001 0.000001 0.000000 0.000001 0.000001 0.000000 0.000001 0.000001 0.000001 0.000001 0.000003 -0.000001 0.000001 0.000001 0.000000 0.000001 0.000001 0.000000 0.000001 0.000001 0.000001 0.000001 0.000003 -0.000001 -0.000000 0.000003 -0.000000 -0.000000 0.000003 -0.000000 -0.000000 0.000003 -0.000000 
5.936265 67.208641 -0.032172 6.326410 -55.221844 6.834798 0.000000 -0.000001 -0.000000 -36.244764 -9.229583 3.927883 82.488372 2.285073 5.542681 7.624567 0.126727 -7.782539 -0.000002 -0.000002 0.000001 0.000002 -0.000001 -0.000002 -24.093082 -16.797141 -5.426773 46.704618 1.185512 1.419817 -23.567843 0.910137 -4.123392 -0.000000 -0.000000 -0.000000 -0.000001 0.000001 0.000000 23.650382 -1.975533 -0.403586 1.793315 -0.160934 -1.492769 1.793768 -0.077818 -1.510098 0.902413 13.092950 -6.679246 -9.911778 29.654182 -8.612888 0.000001 0.000001 0.000000 0.000001 0.000001 0.000000 0.000001 0.000001 0.000000 0.000001 0.000001 0.000000 -0.000001 0.000001 0.000000 0.000001 0.000001 0.000000 -0.000001 0.000001 0.000000 0.000001 0.000001 0.000000 0.000001 0.000001 0.000000 -0.633819 -21.894323 11.029336 0.413544 -11.463071 -53.672535 -92.583371 -58.066860 -79.009893 -1.902328 -27.699146 -9.040978 4.766511 -0.870669 -14.442467 15.732299 12.674824 8.828580 -0.000001 -0.000000 0.000001 -3.613648 -7.815493 -81.278985 0.002368 -4.393842 -67.523195 0.000000 -0.000000 -0.000004 -5.488111 2.398002 -86.688645 -0.067889 -4.899615 -76.606896 0.000001 0.000001 0.000001 -4.482761 3.921375 -90.466341 -1.101508 -0.684102 -62.407466 -0.000000 -0.000001 -0.000001 -8.879415 8.264210 -85.770886 -0.044556 -0.067912 -74.172009 -0.000002 -0.000001 0.000003 -0.000000 -0.000001 -0.000001 0.557012 8.054696 -0.612864 16.471561 5.343415 67.215926 -28.127231 91.250030 23.443610 -0.180037 -3.442249 -11.623162 24.918338 -21.323384 30.343071 9.041925 8.262107 -18.001800 -0.000001 -0.000001 0.000001 -0.059001 -3.020601 61.495287 0.006455 4.395175 66.609180 -0.000002 -0.000001 0.000002 -1.183699 -0.128282 68.289857 -0.077072 4.898397 84.511495 -0.000001 0.000001 -0.000002 0.900982 -4.644162 79.154345 -0.724644 1.143648 73.284166 0.000002 -0.000002 -0.000002 -3.962854 0.099809 86.744926 -0.023829 0.053438 54.526029 -0.000001 0.000000 0.000001 0.000000 -0.000000 0.000000 0.000002 -0.000001 0.000000 0.000002 0.000004 -0.000002 0.000002 -0.000001 -0.000000 0.000002 -0.000001 -0.000000 0.000002 -0.000001 0.000000 0.000002 0.000004 -0.000001 0.000002 -0.000001 -0.000000 0.000002 -0.000001 -0.000000 0.000002 -0.000001 0.000000 0.000002 0.000004 -0.000001 0.000000 -0.000001 -0.000000 0.000000 -0.000001 -0.000000 0.000000 -0.000001 -0.000000 
13.207408 65.968369 -0.130000 4.460818 -52.060962 4.426550 -0.000000 0.000001 0.000000 -28.451805 -11.603424 8.885858 87.746518 -0.038916 7.202320 3.833557 0.365459 -4.656288 0.000000 0.000001 -0.000000 -0.000000 -0.000001 -0.000002 -30.261372 -16.691673 -10.137941 48.121377 0.614244 2.458885 -22.571718 0.423076 -1.900333 0.000000 -0.000001 0.000000 0.000001 -0.000003 -0.000001 23.904002 -5.804624 1.252467 1.673046 -1.303827 -1.684608 1.697521 -1.196692 -1.667094 -0.458646 14.427538 -5.530137 -9.578224 31.933627 -8.575084 0.000002 -0.000000 -0.000000 0.000002 -0.000000 -0.000000 0.000002 -0.000000 -0.000000 0.000002 -0.000000 0.000000 0.000000 -0.000000 0.000000 0.000002 -0.000000 0.000000 0.000000 -0.000000 0.000000 0.000002 -0.000000 -0.000000 0.000002 -0.000000 -0.000000 1.049727 -23.215905 17.094398 -1.503517 -10.441500 -56.898170 -94.195262 -57.605733 -81.523710 -2.078120 -32.037573 -9.543592 4.766511 -0.870670 -14.442467 15.732301 12.674827 8.828580 0.000001 0.000001 -0.000000 -3.612181 -7.814408 -81.290391 0.007468 -4.389162 -67.564272 0.000002 0.000000 -0.000000 -5.485935 2.383007 -86.713794 -0.067888 -4.899617 -76.606896 -0.000000 0.000000 -0.000001 -4.476169 3.920775 -90.504610 -1.100894 -0.683026 -62.473521 -0.000000 0.000001 -0.000002 -8.877150 8.265302 -85.784341 -0.040758 -0.066931 -74.216801 -0.000002 0.000001 -0.000002 -0.000000 0.000002 -0.000000 0.403534 7.339842 -3.212069 19.922630 5.218209 72.133922 -36.410721 94.836883 29.996094 -0.124976 -3.874049 -11.806807 24.918342 -21.323386 30.343071 9.041927 8.262109 -18.001800 0.000001 0.000000 0.000005 -0.060165 -3.022094 61.543167 0.006451 4.395167 66.609180 0.000003 0.000001 0.000000 -1.158494 -0.126424 68.286490 -0.076200 4.897967 84.516720 0.000002 0.000001 -0.000001 0.915409 -4.641798 79.129285 -0.721268 1.142189 73.303612 -0.000000 -0.000003 0.000001 -3.965417 0.100987 86.729967 -0.021420 0.053784 54.601188 0.000003 0.000004 0.000001 -0.000001 -0.000001 0.000003 0.000001 -0.000001 0.000002 -0.000000 -0.000001 0.000002 0.000001 -0.000001 0.000002 0.000001 -0.000001 0.000002 0.000001 -0.000001 0.000002 -0.000000 -0.000001 0.000002 0.000001 -0.000001 0.000002 0.000001 -0.000001 0.000002 0.000001 -0.000001 0.000002 -0.000000 -0.000001 0.000002 -0.000000 0.000001 0.000000 -0.000000 0.000001 0.000000 -0.000000 0.000001 0.000000 
20.572670 66.068550 -0.030959 4.078299 -51.931789 4.416281 0.000000 -0.000003 0.000000 -20.263021 -10.814368 12.894966 84.496175 -3.225532 9.407145 3.441295 -0.092201 -2.814294 -0.000001 -0.000002 0.000000 -0.000000 0.000002 0.000001 -35.678333 -15.611166 -14.453181 44.175068 2.222849 1.721962 -13.088084 0.115736 0.511929 0.000000 0.000002 0.000000 -0.000001 0.000000 -0.000000 23.489470 -8.857596 1.017071 1.373154 -2.076004 -1.954907 1.419048 -1.956492 -1.920529 0.284800 16.005522 -5.049947 -9.907240 35.032030 -8.008910 0.000001 -0.000000 0.000000 0.000001 -0.000000 0.000000 0.000001 -0.000000 0.000000 0.000001 -0.000000 0.000000 -0.000001 -0.000000 0.000000 0.000001 -0.000000 0.000000 -0.000001 -0.000000 0.000000 0.000001 -0.000000 0.000000 0.000001 -0.000000 0.000000 1.618776 -25.578155 19.345906 -2.330439 -5.740350 -56.994500 -96.895878 -55.943989 -85.143663 -3.527863 -34.669617 -13.257385 4.766510 -0.870668 -14.442467 15.732297 12.674826 8.828580 -0.000000 0.000001 -0.000001 -3.612006 -7.813806 -81.296245 0.009856 -4.387142 -67.588731 -0.000001 0.000002 -0.000002 -5.485543 2.375533 -86.728185 -0.067888 -4.899620 -76.606889 -0.000000 0.000000 -0.000001 -4.472830 3.920505 -90.527232 -1.098661 -0.681808 -62.512063 0.000000 0.000000 0.000000 -8.875841 8.265942 -85.792299 -0.038971 -0.064907 -74.243016 0.000002 0.000000 0.000001 -0.000000 -0.000001 -0.000000 0.302129 7.855045 -4.721444 21.783550 4.285743 75.644919 -45.094507 96.349360 38.235761 0.075416 -2.809107 -11.539307 24.918342 -21.323384 30.343064 9.041926 8.262109 -18.001795 -0.000000 0.000000 -0.000001 -0.059817 -3.023814 61.571177 0.006455 4.395164 66.609173 -0.000004 0.000003 -0.000001 -1.144447 -0.125491 68.285615 -0.075866 4.897806 84.518728 0.000003 0.000001 0.000001 0.922285 -4.641108 79.114389 -0.719294 1.141339 73.315039 -0.000002 -0.000003 0.000000 -3.966667 0.101595 86.722611 -0.019856 0.052474 54.645311 -0.000002 0.000003 -0.000001 0.000003 0.000003 0.000001 -0.000000 0.000001 -0.000001 0.000001 -0.000001 -0.000001 -0.000000 0.000001 -0.000000 -0.000000 0.000001 -0.000000 -0.000000 0.000001 -0.000001 0.000001 -0.000001 -0.000000 -0.000000 0.000001 -0.000000 -0.000000 0.000001 -0.000000 -0.000000 0.000001 -0.000001 0.000001 -0.000001 -0.000000 0.000000 -0.000003 0.000000 0.000000 -0.000003 0.000000 0.000000 -0.000003 0.000000 
28.202520 67.451302 0.193070 5.680478 -54.313716 6.183337 0.000000 -0.000000 -0.000000 -15.021589 -8.205166 13.393242 77.325384 -5.747500 11.556003 3.675014 -0.144416 -7.718302 0.000001 -0.000001 -0.000001 -0.000001 0.000001 0.000000 -34.620962 -12.667223 -13.687021 26.526098 2.135087 -1.465862 5.016179 0.171602 5.351933 0.000000 0.000000 -0.000000 0.000001 0.000001 0.000001 22.566149 -10.261240 -0.171492 1.273571 -2.375300 -2.045734 1.330441 -2.257102 -2.005381 0.678672 17.605952 -5.385225 -9.878843 37.634404 -7.457761 0.000001 0.000001 -0.000000 0.000001 0.000001 -0.000000 0.000001 0.000001 -0.000000 0.000001 0.000001 -0.000000 0.000001 0.000000 0.000000 0.000001 0.000001 -0.000000 0.000001 0.000000 0.000000 0.000001 0.000001 -0.000000 0.000001 0.000001 -0.000000 1.581704 -25.923558 19.281493 -1.651710 -4.102697 -55.598495 -96.096629 -54.477995 -83.837184 -4.524307 -37.110443 -15.138863 4.766509 -0.870669 -14.442467 15.732299 12.674825 8.828580 -0.000002 -0.000001 0.000000 -3.612629 -7.813602 -81.297857 0.010061 -4.387049 -67.598246 0.000002 0.000003 0.000000 -5.486539 2.373595 -86.731935 -0.067887 -4.899617 -76.606896 0.000001 0.000001 0.000001 -4.472132 3.920486 -90.535845 -1.097843 -0.681503 -62.527192 -0.000002 -0.000001 0.000002 -8.875445 8.266124 -85.794614 -0.038908 -0.063904 -74.253329 0.000002 0.000001 -0.000001 -0.000000 -0.000003 0.000000 0.225593 9.332702 -4.931902 22.207286 2.017176 77.850530 -64.407168 96.501284 58.610304 0.323816 -0.044803 -10.357383 24.918337 -21.323383 30.343064 9.041926 8.262106 -18.001804 0.000000 -0.000000 0.000003 -0.059764 -3.024457 61.582119 0.006453 4.395164 66.609180 -0.000001 -0.000001 0.000004 -1.140939 -0.125429 68.286674 -0.075768 4.897752 84.519329 0.000003 -0.000000 0.000001 0.923736 -4.641534 79.108883 -0.718806 1.141135 73.317846 0.000002 -0.000001 0.000001 -3.966932 0.101689 86.721198 -0.019035 0.050546 54.662308 0.000001 0.000001 0.000002 0.000001 -0.000001 -0.000002 -0.000003 -0.000000 -0.000001 -0.000003 0.000000 -0.000000 -0.000003 -0.000000 0.000001 -0.000003 -0.000000 0.000001 -0.000003 -0.000000 -0.000001 -0.000003 0.000000 -0.000000 -0.000003 -0.000000 0.000001 -0.000003 -0.000000 0.000001 -0.000003 -0.000000 -0.000001 -0.000003 0.000000 -0.000000 0.000000 -0.000000 -0.000000 0.000000 -0.000000 -0.000000 0.000000 -0.000000 -0.000000 
